<svg width="59" height="39" viewBox="0 0 59 39" fill="none" xmlns="http://www.w3.org/2000/svg">
<path d="M38.4757 38.7092H0V0H38.4757V13.2449H36.6921V1.79443H1.7836V36.9146H36.6921V25.3788H38.4757V38.7092Z" fill="white"/>
<path d="M7.86102 15.3789H9.64795V18.8062L12.2057 15.3789H14.3502L11.4128 19.0085L14.5847 23.2448H12.3175L9.64795 19.5029V23.2448H7.86102V15.3789Z" fill="white"/>
<path d="M19.2457 21.6231C20.6871 21.6231 21.4347 20.5984 21.4347 19.3118C21.4347 17.9163 20.4703 17.0005 19.2457 17.0005C17.9886 17.0005 17.0567 17.9163 17.0567 19.3118C17.0567 20.6202 18.0321 21.6231 19.2457 21.6231ZM19.2457 15.3652C21.5538 15.3652 23.277 16.8806 23.277 19.3118C23.277 21.6231 21.5538 23.2585 19.2457 23.2585C16.9376 23.2585 15.2145 21.743 15.2145 19.3118C15.2145 17.0987 16.8292 15.3652 19.2457 15.3652Z" fill="white"/>
<path d="M30.7934 23.2448L27.0855 18.5252V23.2448H25.41V15.3811H26.8396L30.5478 20.121L30.5454 15.3814H32.2207L32.2231 23.2448H30.7934Z" fill="white"/>
<path d="M34.374 15.3789H40.852V17.0645H38.5065V23.2448H36.7194V17.0645H34.374V15.3789Z" fill="white"/>
<path d="M49.5222 19.8612C49.5222 22.2661 48.0033 23.2437 46.328 23.2437C44.3176 23.2437 42.9214 22.0861 42.9214 19.7827V15.3821H44.7085V19.4006C44.7085 20.6254 45.0771 21.5581 46.328 21.5581C47.4114 21.5581 47.7353 20.7603 47.7353 19.5017V15.3821H49.5222V19.8612Z" fill="white"/>
<path d="M53.4569 17.0902V18.8318H54.1045C54.786 18.8318 55.322 18.5847 55.322 17.9217C55.322 17.4835 55.0999 17.0884 54.2398 17.0884C53.9718 17.0884 53.8255 17.079 53.4569 17.0902ZM51.6698 23.2437V15.3821C52.1054 15.3821 54.1045 15.3821 54.328 15.3821C56.4613 15.3821 57.2207 16.4498 57.2207 17.8993C57.2207 19.3601 56.3273 19.9556 55.9028 20.1691L58.1628 23.2437H55.9959L54.1158 20.5174H53.4569V23.2437H51.6698Z" fill="white"/>
</svg>
