<svg width="24" height="24" viewBox="0 0 24 24" fill="none" xmlns="http://www.w3.org/2000/svg">
<path d="M2.40002 3.60002C2.40002 2.93729 2.93729 2.40002 3.60002 2.40002H6.18347C6.77008 2.40002 7.2707 2.82412 7.36715 3.40274L8.25432 8.72579C8.34092 9.24544 8.0785 9.76079 7.6073 9.99638L5.74954 10.9253C7.0891 14.254 9.74604 16.9109 13.0747 18.2505L14.0037 16.3927C14.2392 15.9215 14.7546 15.6591 15.2742 15.7457L20.5973 16.6329C21.1759 16.7293 21.6 17.23 21.6 17.8165V20.4C21.6 21.0628 21.0628 21.6 20.4 21.6H18C9.38438 21.6 2.40002 14.6157 2.40002 6.00002V3.60002Z" fill="#EBEDEE"/>
</svg>
