<svg width="24" height="24" viewBox="0 0 24 24" fill="none" xmlns="http://www.w3.org/2000/svg">
<path fill-rule="evenodd" clip-rule="evenodd" d="M9.60003 4.79999C6.94906 4.79999 4.80002 6.94903 4.80002 9.59999C4.80002 12.2509 6.94906 14.4 9.60003 14.4C12.2509 14.4 14.4 12.2509 14.4 9.59999C14.4 6.94903 12.2509 4.79999 9.60003 4.79999ZM2.40002 9.59999C2.40002 5.62354 5.62357 2.39999 9.60003 2.39999C13.5765 2.39999 16.8 5.62354 16.8 9.59999C16.8 11.155 16.3071 12.5948 15.4689 13.7718L21.2485 19.5515C21.7171 20.0201 21.7171 20.7799 21.2485 21.2485C20.7799 21.7171 20.0201 21.7171 19.5515 21.2485L13.7718 15.4688C12.5949 16.307 11.155 16.8 9.60003 16.8C5.62357 16.8 2.40002 13.5764 2.40002 9.59999Z" fill="#E1CEBE"/>
</svg>
